Alice.In.Wonderland.2010.1080p.BluRay.mkv
*****************************************

TiTLE......  Alice in Wonderland
YEAR.......  2010
GENRE......  Adventure | Family | Fantasy
iMDB RATE..  User Rating: 6.8/10 (43,687 votes)
iMDB URL...  http://www.imdb.com/title/tt1014759/
*************************************************

Video
Duration                         : 1h 48mn
Overall bit rate                 : 7 820 Kbps
Width                            : 1 920 pixels
Height                           : 1 080 pixels
Display aspect ratio             : 16:9
Frame rate                       : 23.976 fps
Stream size                      : 4.66 GiB (79%)

Audio
Format                           : DTS
Bit rate                         : 1 510 Kbps
Channel(s)                       : 6 channels
Channel positions                : Front: L C R, Surround: L R, LFE
Sampling rate                    : 48.0 KHz
Stream size                      : 1.15 GiB (19%)
Language                         : English

Subtitles: English, Dutch, French, Swedish
******************************************


